<svg width="777" height="180" viewBox="0 0 777 180" fill="none" xmlns="http://www.w3.org/2000/svg">
<path fill-rule="evenodd" clip-rule="evenodd" d="M186.493 73.4276L174.232 90.7116C171.802 93.3368 170.028 94.4775 168.407 94.4775C166.731 94.4775 164.835 93.8768 162.773 92.6932C159.006 90.5295 154.845 86.5993 150.055 80.6735C148.6 78.8766 147.084 76.8862 145.418 74.5897C144.796 73.7336 144.181 72.8737 143.468 71.8646L142.237 70.1498L155.346 52.1589C158.898 47.2145 164.749 44.1416 170.619 44.1416C174.629 44.1416 178.171 45.1659 181.177 47.1955C181.199 47.212 181.225 47.2246 181.248 47.241L182.002 47.6723C187.261 51.3003 189.992 57.1362 189.813 62.9975C189.812 66.6369 188.743 70.2927 186.493 73.4276ZM133.973 136.208C129.136 136.208 123.225 132.158 118.545 125.638V125.639L104.659 106.063L93.7678 90.7117L87.1071 81.321L81.5072 73.4276C79.2571 70.2928 78.1898 66.6369 78.1872 62.9975C78.0095 57.1363 80.7408 51.3003 85.9996 47.6723L86.7531 47.2411C86.7764 47.2246 86.801 47.212 86.8231 47.1956L86.884 47.1424C90.0575 45.0104 93.6835 43.8837 97.3796 43.8837C103.507 43.8837 109.221 46.7492 112.666 51.5507L126.838 71.2678L128.62 73.8095C128.904 74.223 129.242 74.7175 129.395 74.9337L131.364 77.7335C132.216 78.9436 132.94 79.9591 133.673 80.9682C133.784 81.1237 133.889 81.2628 134.001 81.4146C135.86 83.9627 137.531 86.1301 139.214 88.1712C147.668 98.4128 155.595 104.298 163.341 106.063L149.456 125.639V125.638C144.776 132.158 138.864 136.208 134.027 136.208H133.973ZM203.942 60.5973C203.388 52.6154 200.036 45.3847 194.568 39.961C194.134 39.5323 193.706 39.1365 193.27 38.7495C192.662 38.2159 192.268 37.8947 191.87 37.5785C191.763 37.4951 191.661 37.4103 191.555 37.3281C191.072 36.9551 190.578 36.5934 190.071 36.2469C190.063 36.2419 189.336 35.7487 189.336 35.7487C187.88 34.7535 186.354 33.8911 184.776 33.1488C181.248 31.4897 177.448 30.4717 173.519 30.1353C172.559 30.0531 171.593 30 170.62 30C164.768 30 159.12 31.5238 154.198 34.2831C150.105 36.5782 146.512 39.7257 143.736 43.5902L134.002 57.1501L124.264 43.5902C121.488 39.7257 117.895 36.5782 113.802 34.2831C108.88 31.5238 103.232 30 97.3809 30C96.4069 30 95.4421 30.0531 94.4811 30.1353C90.5516 30.4717 86.753 31.4897 83.2242 33.1488C81.6459 33.8911 80.1195 34.7535 78.6644 35.7487L77.9862 36.2077C77.422 36.5934 76.9292 36.9551 76.4455 37.3281C76.3391 37.4103 76.2367 37.4951 76.1316 37.5785C75.7322 37.8947 75.3392 38.2159 74.9567 38.5484C74.294 39.1365 73.866 39.5323 73.4536 39.9407C67.9639 45.3847 64.6128 52.6154 64.0733 60.3318C64.0292 61.0791 64.015 61.5635 64.0072 62.0478C64.0033 62.2994 63.9981 62.5486 64.0007 62.8002C64.0072 63.4489 64.0409 64.0951 64.085 64.7388C64.1083 65.0574 64.1382 65.3748 64.1719 65.6935C64.2017 65.9793 64.2393 66.2638 64.2756 66.5484C64.9319 71.4852 66.7747 76.3424 69.8989 80.6937L106.934 134.39C107.708 135.47 108.529 136.496 109.378 137.481C109.485 137.604 109.586 137.734 109.692 137.856C109.831 138.014 109.977 138.159 110.117 138.315C116.813 145.686 125.471 150.118 133.595 150.118H134.405C142.53 150.118 151.187 145.686 157.883 138.315C158.023 138.159 158.169 138.014 158.308 137.856C158.416 137.734 158.517 137.604 158.622 137.481C159.473 136.496 160.292 135.47 161.068 134.39L198.101 80.6937C201.225 76.3424 203.068 71.4852 203.724 66.5484C203.761 66.2638 203.8 65.9793 203.828 65.6935C203.862 65.3748 203.892 65.0574 203.915 64.7388C203.96 64.0951 203.994 63.4489 203.999 62.8002C204.002 62.5486 203.997 62.2994 203.994 62.0478C203.986 61.5635 203.971 61.0791 203.942 60.5973Z" fill="url(#paint0_linear)"/>
<path fill-rule="evenodd" clip-rule="evenodd" d="M244.417 60L261.205 98.5409C261.205 98.5969 261.32 98.9655 261.549 99.6491C261.778 100.337 261.95 100.98 262.066 101.582C262.18 100.98 262.351 100.337 262.581 99.6491C262.811 98.9655 262.954 98.5969 263.013 98.5409L279.799 60H290.216C289.986 60.4922 289.441 61.7255 288.581 63.697C287.72 65.6699 286.645 68.0934 285.353 70.97C284.062 73.8467 282.626 77.0515 281.049 80.5857C279.469 84.1187 277.848 87.7076 276.184 91.35C274.518 94.995 272.898 98.5969 271.321 102.157C269.741 105.719 268.307 108.937 267.015 111.812C265.725 114.689 264.633 117.102 263.744 119.045C262.854 120.989 262.295 122.209 262.066 122.7C261.835 122.209 261.291 120.989 260.43 119.045C259.568 117.102 258.493 114.689 257.201 111.812C255.911 108.937 254.475 105.719 252.897 102.157C251.317 98.5969 249.697 94.995 248.032 91.35C246.368 87.7076 244.747 84.1187 243.169 80.5857C241.589 77.0515 240.157 73.8467 238.865 70.97C237.573 68.0934 236.498 65.6699 235.637 63.697C234.776 61.7255 234.229 60.4922 234 60H244.417Z" fill="#1B143D"/>
<path fill-rule="evenodd" clip-rule="evenodd" d="M320 120V60H360.821V69.1362H330.29V85.2669H357.447V94.6509H330.29V110.616H362V120H320Z" fill="#1B143D"/>
<path fill-rule="evenodd" clip-rule="evenodd" d="M446 59.7369V123C445.601 122.505 444.72 121.591 443.353 120.264C441.986 118.939 440.306 117.351 438.313 115.497C436.32 113.645 434.115 111.6 431.695 109.363C429.274 107.122 426.812 104.857 424.307 102.562C421.801 100.27 419.354 98.0169 416.963 95.8043C414.571 93.5943 412.394 91.5642 410.43 89.7103C408.465 87.859 406.812 86.2836 405.477 84.9841C404.137 83.6872 403.269 82.7872 402.872 82.2905C402.813 82.1801 402.586 81.8885 402.188 81.4194C401.789 80.9503 401.448 80.5207 401.164 80.133L401.419 82.7872V120.183H391V57C391.398 57.498 392.282 58.3967 393.647 59.6949C395.014 60.9943 396.692 62.5553 398.687 64.3803C400.679 66.2041 402.885 68.1947 405.305 70.3508C407.725 72.5057 410.186 74.7026 412.693 76.9415C415.196 79.1804 417.646 81.3918 420.037 83.5755C422.429 85.7593 424.62 87.7486 426.613 89.5447C428.607 91.3422 430.271 92.8755 431.61 94.1474C432.947 95.418 433.816 96.3009 434.215 96.8002L435.838 99.122L435.581 96.3009V59.7369H446Z" fill="#1B143D"/>
<path fill-rule="evenodd" clip-rule="evenodd" d="M493.167 110.789C496.41 110.789 499.396 110.348 502.127 109.462C504.859 108.58 507.218 107.267 509.21 105.527C511.201 103.788 512.752 101.662 513.863 99.149C514.972 96.6348 515.526 93.7214 515.526 90.4075C515.526 86.6512 514.858 83.4621 513.52 80.8376C512.183 78.2144 510.491 76.0874 508.442 74.4581C506.395 72.83 504.119 71.6418 501.617 70.8948C499.111 70.149 496.723 69.7775 494.447 69.7775H486.084V110.789H493.167ZM475.587 60H491.716C497.974 60 503.28 60.9256 507.632 62.7755C511.986 64.6268 515.526 67.015 518.258 69.9428C520.988 72.8706 522.964 76.1976 524.188 79.9263C525.412 83.655 526.024 87.3693 526.024 91.0692C526.024 95.6001 525.183 99.6741 523.506 103.291C521.827 106.91 519.564 109.99 516.721 112.529C513.876 115.071 510.561 117.018 506.779 118.369C502.995 119.725 498.997 120.4 494.788 120.4H475.587V60Z" fill="#1B143D"/>
<path fill-rule="evenodd" clip-rule="evenodd" d="M566.466 90.0879C566.466 92.9309 567.019 95.5991 568.124 98.094C569.232 100.588 570.763 102.759 572.721 104.61C574.677 106.46 576.946 107.922 579.529 108.995C582.11 110.068 584.904 110.603 587.911 110.603C590.804 110.603 593.541 110.068 596.123 108.995C598.703 107.922 600.943 106.46 602.846 104.61C604.746 102.759 606.248 100.588 607.355 98.094C608.462 95.5991 609.015 92.9309 609.015 90.0879C609.015 87.245 608.447 84.5767 607.313 82.0831C606.178 79.5895 604.646 77.4043 602.718 75.5265C600.788 73.6499 598.533 72.1749 595.952 71.1014C593.37 70.0293 590.604 69.4926 587.655 69.4926C584.706 69.4926 581.94 70.0293 579.359 71.1014C576.776 72.1749 574.535 73.6499 572.636 75.5265C570.734 77.4043 569.232 79.5895 568.124 82.0831C567.019 84.5767 566.466 87.245 566.466 90.0879ZM556 90.088C556 86.0122 556.835 82.1507 558.51 78.5033C560.182 74.8559 562.451 71.665 565.317 68.9291C568.181 66.1945 571.529 64.0222 575.358 62.4133C579.189 60.8044 583.286 60 587.655 60C591.966 60 596.05 60.8044 599.909 62.4133C603.767 64.0222 607.142 66.1945 610.037 68.9291C612.93 71.665 615.211 74.8559 616.886 78.5033C618.558 82.1507 619.396 86.0122 619.396 90.088C619.396 94.2185 618.558 98.0941 616.886 101.713C615.211 105.333 612.93 108.498 610.037 111.206C607.142 113.915 603.767 116.048 599.909 117.603C596.05 119.157 591.966 119.935 587.655 119.935C583.286 119.935 579.189 119.157 575.358 117.603C571.529 116.048 568.181 113.915 565.317 111.206C562.451 108.498 560.182 105.333 558.51 101.713C556.835 98.0941 556 94.2185 556 90.088Z" fill="#1B143D"/>
<path fill-rule="evenodd" clip-rule="evenodd" d="M659.484 90.1362C659.484 92.9837 660.037 95.6563 661.145 98.1552C662.254 100.653 663.788 102.827 665.749 104.681C667.708 106.534 669.981 107.999 672.567 109.074C675.151 110.148 677.95 110.684 680.963 110.684C683.86 110.684 686.602 110.148 689.187 109.074C691.772 107.999 694.015 106.534 695.921 104.681C697.824 102.827 699.329 100.653 700.438 98.1552C701.545 95.6563 702.099 92.9837 702.099 90.1362C702.099 87.2887 701.53 84.6161 700.395 82.1185C699.259 79.6209 697.723 77.4323 695.792 75.5514C693.86 73.6718 691.602 72.1944 689.017 71.1193C686.43 70.0454 683.66 69.5078 680.706 69.5078C677.751 69.5078 674.982 70.0454 672.397 71.1193C669.811 72.1944 667.566 73.6718 665.663 75.5514C663.758 77.4323 662.254 79.6209 661.145 82.1185C660.037 84.6161 659.484 87.2887 659.484 90.1362ZM649 90.1362C649 86.054 649.837 82.1862 651.514 78.533C653.188 74.8798 655.463 71.6837 658.333 68.9434C661.203 66.2045 664.555 64.0286 668.39 62.4172C672.226 60.8057 676.33 60 680.706 60C685.023 60 689.115 60.8057 692.979 62.4172C696.844 64.0286 700.224 66.2045 703.123 68.9434C706.021 71.6837 708.306 74.8798 709.984 78.533C711.659 82.1862 712.497 86.054 712.497 90.1362C712.497 94.2734 711.659 98.1552 709.984 101.78C708.306 105.405 706.021 108.576 703.123 111.288C700.224 114.002 696.844 116.138 692.979 117.696C689.115 119.252 685.023 120.031 680.706 120.031C676.33 120.031 672.226 119.252 668.39 117.696C664.555 116.138 661.203 114.002 658.333 111.288C655.463 108.576 653.188 105.405 651.514 101.78C649.837 98.1552 649 94.2734 649 90.1362Z" fill="#1B143D"/>
<defs>
<linearGradient id="paint0_linear" x1="126.705" y1="159.818" x2="209.033" y2="82.141" gradientUnits="userSpaceOnUse">
<stop stop-color="#FECB40"/>
<stop offset="0.30904" stop-color="#F7507C"/>
<stop offset="0.63914" stop-color="#4852E8"/>
<stop offset="1" stop-color="#47CDAE"/>
</linearGradient>
</defs>
</svg>
